<?xml version="1.0" encoding="iso-8859-1"?>
<!-- Uploaded to: SVG Repo, www.svgrepo.com, Generator: SVG Repo Mixer Tools -->
<svg fill="#000000" version="1.1" id="Layer_1" xmlns="http://www.w3.org/2000/svg" xmlns:xlink="http://www.w3.org/1999/xlink" 
	 viewBox="0 0 511.999 511.999" xml:space="preserve">
<g>
	<g>
		<path d="M385.329,0h-68.652v121.393h-60.682v15.872H411.68v47.463H100.319v-47.463h134.57v-15.872h-39.566V0h-68.652v121.393
			H84.448V200.6h31.667v60.674h15.872V200.6h253.305v184.69H131.986V282.392h-15.872v118.77h110.837v110.837h58.095V401.163h116.115
			V200.601h26.39v-79.208h-42.222V0z M142.543,15.872h36.908v105.521h-36.908V15.872z M269.176,496.128h-26.351v-94.965h26.351
			V496.128z M369.457,121.393h-36.908V15.872h36.908V121.393z"/>
	</g>
</g>
<g>
	<g>
		<rect x="155.713" y="232.226" width="200.567" height="15.872"/>
	</g>
</g>
<g>
	<g>
		<rect x="155.713" y="337.795" width="200.567" height="15.872"/>
	</g>
</g>
<g>
	<g>
		<rect x="187.383" y="285.005" width="137.228" height="15.872"/>
	</g>
</g>
<g>
	<g>
		<rect x="335.171" y="285.005" width="21.112" height="15.872"/>
	</g>
</g>
<g>
	<g>
		<rect x="155.713" y="285.005" width="21.112" height="15.872"/>
	</g>
</g>
<g>
	<g>
		<rect x="124.054" y="153.057" width="26.39" height="15.872"/>
	</g>
</g>
<g>
	<g>
		<rect x="361.56" y="153.057" width="26.39" height="15.872"/>
	</g>
</g>
</svg>